<?xml version="1.0" encoding="UTF-8"?>
<svg width="80px" height="67px" viewBox="0 0 80 67" version="1.1" xmlns="http://www.w3.org/2000/svg" xmlns:xlink="http://www.w3.org/1999/xlink">
    <!-- Generator: Sketch 50.2 (55047) - http://www.bohemiancoding.com/sketch -->
    <title>Icon</title>
    <desc>Created with Sketch.</desc>
    <defs></defs>
    <g id="Landing-page-5-jun" stroke="none" stroke-width="1" fill="none" fill-rule="evenodd">
        <g id="Fold-2" transform="translate(-290.000000, -535.000000)" fill="#849C1B">
            <g id="Group-4" transform="translate(194.000000, 173.000000)">
                <g id="Icon" transform="translate(96.000000, 362.000000)">
                    <path d="M68.3333333,53.3333333 L11.6666667,53.3333333 C10.745,53.3333333 10,52.5866667 10,51.6666667 L10,15 C10,14.08 10.745,13.3333333 11.6666667,13.3333333 L16.6666667,13.3333333 L16.6666667,16.6666667 L13.3333333,16.6666667 L13.3333333,50 L66.6666667,50 L66.6666667,43.3333333 L70,43.3333333 L70,51.6666667 C70,52.5866667 69.255,53.3333333 68.3333333,53.3333333 L68.3333333,53.3333333 Z" id="Shape"></path>
                    <path d="M78.3333333,40 L21.6666667,40 C20.745,40 20,39.2533333 20,38.3333333 L20,1.66666667 C20,0.746666667 20.745,0 21.6666667,0 L78.3333333,0 C79.255,0 80,0.746666667 80,1.66666667 L80,38.3333333 C80,39.2533333 79.255,40 78.3333333,40 L78.3333333,40 Z M23.3333333,36.6666667 L76.6666667,36.6666667 L76.6666667,3.33333333 L23.3333333,3.33333333 L23.3333333,36.6666667 L23.3333333,36.6666667 Z" id="Shape"></path>
                    <path d="M58.3333333,66.6666667 L1.66666667,66.6666667 C0.745,66.6666667 0,65.92 0,65 L0,28.3333333 C0,27.4133333 0.745,26.6666667 1.66666667,26.6666667 L6.66666667,26.6666667 L6.66666667,30 L3.33333333,30 L3.33333333,63.3333333 L56.6666667,63.3333333 L56.6666667,56.6666667 L60,56.6666667 L60,65 C60,65.92 59.255,66.6666667 58.3333333,66.6666667 L58.3333333,66.6666667 Z" id="Shape"></path>
                </g>
            </g>
        </g>
    </g>
</svg>