<?xml version="1.0" encoding="UTF-8"?>
<svg width="80px" height="69px" viewBox="0 0 80 69" version="1.1" xmlns="http://www.w3.org/2000/svg" xmlns:xlink="http://www.w3.org/1999/xlink">
    <!-- Generator: Sketch 50.2 (55047) - http://www.bohemiancoding.com/sketch -->
    <title>Icon</title>
    <desc>Created with Sketch.</desc>
    <defs></defs>
    <g id="Landing-page-5-jun" stroke="none" stroke-width="1" fill="none" fill-rule="evenodd">
        <g id="Fold-2" transform="translate(-680.000000, -535.000000)" fill="#849C1B">
            <g id="Group-4" transform="translate(194.000000, 173.000000)">
                <g id="Icon" transform="translate(486.000000, 362.000000)">
                    <path d="M10,69.0233333 L10,53.3333333 L5,53.3333333 C2.24333333,53.3333333 0,51.09 0,48.3333333 L0,5 C0,2.24333333 2.24333333,0 5,0 L75,0 C77.7566667,0 80,2.24333333 80,5 L80,48.3333333 C80,51.09 77.7566667,53.3333333 75,53.3333333 L25.69,53.3333333 L10,69.0233333 L10,69.0233333 Z M5,3.33333333 C4.08,3.33333333 3.33333333,4.08 3.33333333,5 L3.33333333,48.3333333 C3.33333333,49.2533333 4.08,50 5,50 L13.3333333,50 L13.3333333,60.9766667 L24.31,50 L75,50 C75.92,50 76.6666667,49.2533333 76.6666667,48.3333333 L76.6666667,5 C76.6666667,4.08 75.92,3.33333333 75,3.33333333 L5,3.33333333 L5,3.33333333 Z" id="Shape"></path>
                    <circle id="Oval" cx="26.6666667" cy="26.6666667" r="3.33333333"></circle>
                    <circle id="Oval" cx="53.3333333" cy="26.6666667" r="3.33333333"></circle>
                    <circle id="Oval" cx="40" cy="26.6666667" r="3.33333333"></circle>
                </g>
            </g>
        </g>
    </g>
</svg>