<?xml version="1.0" encoding="UTF-8"?>
<svg width="80px" height="80px" viewBox="0 0 80 80" version="1.1" xmlns="http://www.w3.org/2000/svg" xmlns:xlink="http://www.w3.org/1999/xlink">
    <!-- Generator: Sketch 50.2 (55047) - http://www.bohemiancoding.com/sketch -->
    <title>Icon</title>
    <desc>Created with Sketch.</desc>
    <defs></defs>
    <g id="Landing-page-5-jun" stroke="none" stroke-width="1" fill="none" fill-rule="evenodd">
        <g id="Fold-2" transform="translate(-1070.000000, -535.000000)" fill="#849C1B">
            <g id="Group-4" transform="translate(194.000000, 173.000000)">
                <g id="Icon" transform="translate(876.000000, 362.000000)">
                    <path d="M40,23.3333333 C33.5666667,23.3333333 28.3333333,18.0983333 28.3333333,11.6666667 C28.3333333,5.235 33.5666667,0 40,0 C46.4333333,0 51.6666667,5.235 51.6666667,11.6666667 C51.6666667,18.0983333 46.4333333,23.3333333 40,23.3333333 L40,23.3333333 Z M40,3.33333333 C35.405,3.33333333 31.6666667,7.07166667 31.6666667,11.6666667 C31.6666667,16.2616667 35.405,20 40,20 C44.595,20 48.3333333,16.2616667 48.3333333,11.6666667 C48.3333333,7.07166667 44.595,3.33333333 40,3.33333333 L40,3.33333333 Z" id="Shape"></path>
                    <path d="M45,63.3333333 L35,63.3333333 C34.08,63.3333333 33.3333333,62.5883333 33.3333333,61.6666667 L33.3333333,48.3883333 C25.9766667,44.5283333 23.3333333,34.4166667 23.3333333,26.6666667 C23.3333333,25.745 24.08,25 25,25 L55,25 C55.92,25 56.6666667,25.745 56.6666667,26.6666667 C56.6666667,34.4166667 54.0233333,44.5283333 46.6666667,48.3883333 L46.6666667,61.6666667 C46.6666667,62.5883333 45.92,63.3333333 45,63.3333333 L45,63.3333333 Z M36.6666667,60 L43.3333333,60 L43.3333333,47.3333333 C43.3333333,46.6633333 43.735,46.0566667 44.3516667,45.7966667 C50.795,43.08 52.945,34.2066667 53.2833333,28.3316667 L26.7166667,28.3316667 C27.055,34.205 29.205,43.08 35.6483333,45.7966667 C36.265,46.0583333 36.6666667,46.6633333 36.6666667,47.3333333 L36.6666667,60 L36.6666667,60 Z" id="Shape"></path>
                    <path d="M40,71.6666667 C30.715,71.6666667 15,70.0866667 15,64.1666667 C15,61.22 18.82,59.06 26.3566667,57.7416667 C27.275,57.59 28.1266667,58.1916667 28.285,59.0966667 C28.4433333,60.0016667 27.8366667,60.8666667 26.9316667,61.025 C20.2416667,62.1933333 18.445,63.83 18.33,64.2033333 C18.78,65.5966667 26.6216667,68.3333333 40,68.3333333 C53.3783333,68.3333333 61.22,65.5966667 61.67,64.13 C61.555,63.8316667 59.7666667,62.2033333 53.11,61.0333333 C52.2033333,60.8733333 51.5983333,60.01 51.7566667,59.1033333 C51.915,58.1966667 52.77,57.5966667 53.6866667,57.75 C61.195,59.0666667 65,61.2266667 65,64.1666667 C65,70.0866667 49.285,71.6666667 40,71.6666667 L40,71.6666667 Z" id="Shape"></path>
                    <path d="M40,80 C14.02,80 0,72.2716667 0,65 C0,57.08 13.6633333,52.4933333 26.4516667,50.8416667 C27.355,50.7316667 28.1983333,51.3666667 28.3183333,52.2816667 C28.4366667,53.195 27.7916667,54.03 26.8783333,54.1483333 C11.4216667,56.145 3.33333333,61.1183333 3.33333333,65 C3.33333333,70.5183333 18.3916667,76.6666667 40,76.6666667 C61.6083333,76.6666667 76.6666667,70.5183333 76.6666667,65 C76.6666667,61.1183333 68.5816667,56.1466667 53.13,54.15 C52.2166667,54.0316667 51.5716667,53.1966667 51.69,52.2833333 C51.8066667,51.3683333 52.6483333,50.7416667 53.5566667,50.8433333 C66.34,52.495 80,57.0816667 80,65 C80,72.2716667 65.98,80 40,80 L40,80 Z" id="Shape"></path>
                </g>
            </g>
        </g>
    </g>
</svg>