<?xml version="1.0" encoding="UTF-8"?>
<svg width="35px" height="32px" viewBox="0 0 35 32" version="1.1" xmlns="http://www.w3.org/2000/svg" xmlns:xlink="http://www.w3.org/1999/xlink">
    <!-- Generator: Sketch 50.2 (55047) - http://www.bohemiancoding.com/sketch -->
    <title>quotation-mark</title>
    <desc>Created with Sketch.</desc>
    <defs></defs>
    <g id="Landing-page-5-jun" stroke="none" stroke-width="1" fill="none" fill-rule="evenodd">
        <g id="fold-6" transform="translate(-703.000000, -601.000000)" fill="#FFFFFF" fill-rule="nonzero">
            <g id="#1" transform="translate(443.000000, 569.000000)">
                <g id="quotation-mark" transform="translate(260.000000, 32.000000)">
                    <path d="M14.7986708,1.40809846 L14.7986708,7.14348308 C14.7986708,7.92132923 14.1681231,8.55158154 13.3902769,8.55158154 C10.61504,8.55158154 9.10542769,11.3980062 8.89619692,17.0159262 L13.3902769,17.0159262 C14.1681231,17.0159262 14.7986708,17.6467692 14.7986708,18.42432 L14.7986708,30.5343015 C14.7986708,31.3117538 14.1681231,31.9421046 13.3902769,31.9421046 L1.40809846,31.9421046 C0.629956923,31.9421046 0,31.3112615 0,30.5343015 L0,18.42432 C0,15.7312 0.271163077,13.2598154 0.805710769,11.0780062 C1.35394462,8.84086154 2.19549538,6.88482462 3.30624,5.26404923 C4.44918154,3.59837538 5.87884308,2.29129846 7.55584,1.38072615 C9.24416,0.46464 11.2074831,0 13.3907692,0 C14.1681231,0 14.7986708,0.630252308 14.7986708,1.40809846 Z M32.9622646,8.55168 C33.7397169,8.55168 34.3707569,7.92083692 34.3707569,7.14358154 L34.3707569,1.40819692 C34.3707569,0.630350769 33.7398154,9.84615385e-05 32.9622646,9.84615385e-05 C30.7798646,9.84615385e-05 28.8162462,0.464836923 27.1285169,1.38082462 C25.4512246,2.29139692 24.0207754,3.59847385 22.8776369,5.26414769 C21.7672862,6.88492308 20.9257354,8.84105846 20.3774031,11.0786954 C19.8431508,13.2611938 19.5719877,15.7325785 19.5719877,18.4244185 L19.5719877,30.5344 C19.5719877,31.3118523 20.2027323,31.9422031 20.9803815,31.9422031 L32.9621662,31.9422031 C33.7396185,31.9422031 34.3700677,31.31136 34.3700677,30.5344 L34.3700677,18.42432 C34.3700677,17.6468677 33.7397169,17.0159262 32.9621662,17.0159262 L28.5321846,17.0159262 C28.7382646,11.3981046 30.2258215,8.55168 32.9622646,8.55168 Z" id="Shape"></path>
                </g>
            </g>
        </g>
    </g>
</svg>