<?xml version="1.0" encoding="UTF-8"?>
<svg width="40px" height="50px" viewBox="0 0 40 50" version="1.1" xmlns="http://www.w3.org/2000/svg" xmlns:xlink="http://www.w3.org/1999/xlink">
    <!-- Generator: Sketch 50.2 (55047) - http://www.bohemiancoding.com/sketch -->
    <title>clipboard</title>
    <desc>Created with Sketch.</desc>
    <defs></defs>
    <g id="Landing-page-5-jun" stroke="none" stroke-width="1" fill="none" fill-rule="evenodd">
        <g id="fould-4" transform="translate(-150.000000, -383.000000)" fill="#000000" fill-rule="nonzero">
            <g id="Group-2" transform="translate(150.000000, 383.000000)">
                <g id="clipboard">
                    <path d="M34.9090677,6.55094104 L30.3030303,6.55094104 L30.3030303,4.52731246 C30.3030303,3.87259234 29.575804,3.57502336 28.9091315,3.57502336 L25.3334377,3.57502336 C24.4849877,1.19424364 22.3637466,0.0038537838 19.9395041,0.0038537838 C17.5419425,-0.0846650142 15.3611916,1.35909139 14.5455705,3.57502336 L11.0304306,3.57502336 C10.3637582,3.57502336 9.6970857,3.87259234 9.6970857,4.52731246 L9.6970857,6.55094104 L5.09093229,6.55094104 C2.36136849,6.57953592 0.128299939,8.69418962 0,11.3719687 L0,45.4765413 C0,48.0954218 2.42424242,50 5.09093229,50 L34.9090677,50 C37.5757576,50 40,48.0954218 40,45.4765413 L40,11.3720826 C39.8717001,8.69418962 37.6386315,6.57953592 34.9090677,6.55094104 Z M12.1212121,5.95580308 L15.4545745,5.95580308 C16.0364483,5.88608171 16.5038267,5.45134846 16.6061418,4.8844636 C16.9650568,3.34945422 18.3363349,2.24758316 19.9395041,2.2061149 C21.5278249,2.25339328 22.8784544,3.35868205 23.2121966,4.8844636 C23.320892,5.47094335 23.8191272,5.91125887 24.4243178,5.95580308 L27.8789039,5.95580308 L27.8789039,10.7173625 L12.1212121,10.7173625 L12.1212121,5.95580308 Z M37.5757576,45.4766552 C37.5757576,46.7860955 36.2424126,47.6193342 34.9090677,47.6193342 L5.09093229,47.6193342 C3.75758736,47.6193342 2.42424242,46.7860955 2.42424242,45.4766552 L2.42424242,11.3720826 C2.54790222,10.0090982 3.69772952,8.956784 5.09093229,8.93183469 L9.6969697,8.93183469 L9.6969697,11.9673345 C9.76100366,12.6342445 10.3491417,13.1331168 11.0303146,13.0982562 L28.9090155,13.0982562 C29.6027168,13.1355092 30.2092994,12.6434723 30.3029143,11.9673345 L30.3029143,8.93172076 L34.9089517,8.93172076 C36.3020385,8.956784 37.4519818,10.0089843 37.5756416,11.3719687 L37.5756416,45.4766552 L37.5757576,45.4766552 Z" id="Shape"></path>
                    <path d="M14.6517212,26.3274637 C14.2270257,25.9122001 13.5219813,25.888778 13.0664009,26.2749903 L9.44288897,29.4785814 L7.91424529,28.0080196 C7.4895498,27.592756 6.78450544,27.5694345 6.32892498,27.9555462 C5.89035834,28.3817668 5.89035834,29.0523607 6.32892498,29.4785814 L8.65017463,31.6843738 C8.85108951,31.8930611 9.1412999,32.0084624 9.4427806,31.9995158 C9.74144372,31.9955953 10.0263441,31.8823051 10.2353866,31.6843738 L14.6515044,27.7980255 C15.0893125,27.4254845 15.1185719,26.7941954 14.7168505,26.38818 C14.6962606,26.3669695 14.6744785,26.3467642 14.6517212,26.3274637 Z" id="Shape"></path>
                    <path d="M33.7407363,29 L19.2592637,29 C18.5637703,29 18,29.6715475 18,30.5 C18,31.3284525 18.5637703,32 19.2592637,32 L33.7407363,32 C34.4362297,32 35,31.3284525 35,30.5 C35,29.6715475 34.4362297,29 33.7407363,29 Z" id="Shape"></path>
                    <path d="M14.6517212,17.3274637 C14.2270257,16.9122001 13.5219813,16.888778 13.0664009,17.2749903 L9.44288897,20.4785814 L7.91424529,19.0080196 C7.4895498,18.592756 6.78450544,18.569334 6.32892498,18.9555462 C5.89035834,19.3817668 5.89035834,20.0523607 6.32892498,20.4785814 L8.65017463,22.6843738 C8.85108951,22.8930611 9.1412999,23.0084624 9.4427806,22.9995158 C9.74144372,22.9955953 10.0263441,22.8823051 10.2353866,22.6843738 L14.6515044,18.7980255 C15.0893125,18.4254845 15.1185719,17.7941954 14.7168505,17.38818 C14.6962606,17.3669695 14.6744785,17.3467642 14.6517212,17.3274637 Z" id="Shape"></path>
                    <path d="M33.7407363,19 L19.2592637,19 C18.5637703,19 18,19.6715475 18,20.5 C18,21.3284525 18.5637703,22 19.2592637,22 L33.7407363,22 C34.4362297,22 35,21.3284525 35,20.5 C35,19.6715475 34.4362297,19 33.7407363,19 Z" id="Shape"></path>
                    <path d="M14.6517212,36.3274264 C14.2270257,35.9121601 13.5219813,35.8888384 13.0664009,36.2749527 L9.44288897,39.4785648 L7.91424529,38.0079934 C7.4895498,37.5927271 6.78450544,37.5694054 6.32892498,37.9555196 C5.89035834,38.3817431 5.89035834,39.0523414 6.32892498,39.4785648 L8.65017463,41.6843718 C8.85108951,41.8930604 9.1412999,42.0084624 9.4427806,41.9995158 C9.74144372,41.9955953 10.0263441,41.8823043 10.2353866,41.6843718 L14.6515044,37.7979979 C15.0893125,37.4254545 15.1185719,36.7941612 14.7168505,36.3881432 C14.6962606,36.367033 14.6744785,36.3468276 14.6517212,36.3274264 Z" id="Shape"></path>
                    <path d="M33.7407363,38 L19.2592637,38 C18.5637703,38 18,38.6715475 18,39.5 C18,40.3284525 18.5637703,41 19.2592637,41 L33.7407363,41 C34.4362297,41 35,40.3284525 35,39.5 C35,38.6715475 34.4362297,38 33.7407363,38 Z" id="Shape"></path>
                </g>
            </g>
        </g>
    </g>
</svg>