<?xml version="1.0" encoding="UTF-8"?>
<svg width="98px" height="36px" viewBox="0 0 98 36" version="1.1" xmlns="http://www.w3.org/2000/svg" xmlns:xlink="http://www.w3.org/1999/xlink">
    <!-- Generator: Sketch 50.2 (55047) - http://www.bohemiancoding.com/sketch -->
    <title>Page 1</title>
    <desc>Created with Sketch.</desc>
    <defs>
        <polygon id="path-1" points="0 0.0958851064 11.0655756 0.0958851064 11.0655756 14.2978723 0 14.2978723"></polygon>
        <polygon id="path-3" points="0 0.108714894 11.0656138 0.108714894 11.0656138 21.7325872 0 21.7325872"></polygon>
    </defs>
    <g id="Landing-page-5-jun" stroke="none" stroke-width="1" fill="none" fill-rule="evenodd">
        <g id="fold-1" transform="translate(-60.000000, -22.000000)">
            <g id="Header">
                <g id="Page-1" transform="translate(60.000000, 22.000000)">
                    <path d="M11.0693021,11.157766 L11.0693021,11.426266 L11.0643021,11.426266 C11.0693021,11.338266 11.0693021,11.245766 11.0693021,11.157766" id="Fill-1" fill="#000000"></path>
                    <path d="M24.8040888,14.7111064 L24.8040888,23.5591915 C24.8040888,28.3298298 22.1157163,32.4711064 18.1767602,34.5442979 C18.1640252,34.5506809 18.1512901,34.5570638 18.138555,34.5621702 C16.8153816,35.2553617 15.350849,35.7136596 13.8009914,35.8834468 C13.7793418,35.886 13.7602392,35.8885532 13.7385896,35.8898298 L13.7385896,25.739617 C13.7385896,24.078766 14.104086,22.5034468 14.7624889,21.0915319 C15.149635,20.2515319 15.642482,19.4689787 16.2219275,18.7604681 C17.4635965,17.2374894 19.1038731,16.0540851 20.9835689,15.3698298 C21.1707743,15.3021702 21.3618003,15.2383404 21.5528263,15.1808936 C22.5627171,14.8745106 23.6324627,14.7098298 24.7416869,14.7098298 C24.7633366,14.7098298 24.7837127,14.7098298 24.8040888,14.7111064" id="Fill-3" fill="#97B126"></path>
                    <g id="Group-7" transform="translate(0.000000, 21.593489)">
                        <mask id="mask-2" fill="white">
                            <use xlink:href="#path-1"></use>
                        </mask>
                        <g id="Clip-6"></g>
                        <path d="M11.0655756,11.1570766 L11.0655756,14.2978851 C10.9188676,14.2828213 10.7734332,14.2654596 10.6291449,14.2431191 C4.6213773,13.3954596 -5.09402655e-05,8.22205532 -5.09402655e-05,1.96533191 L-5.09402655e-05,0.0958851064 L0.0311499723,0.0958851064 C0.0671902102,0.0958851064 0.104503955,0.0958851064 0.140416842,0.0970340426 C0.908850747,0.103289362 1.6585641,0.190608511 2.38217058,0.347629787 C7.34680885,1.42686383 11.0655756,5.8565234 11.0655756,11.1570766" id="Fill-5" fill="#97B126" mask="url(#mask-2)"></path>
                    </g>
                    <path d="M11.0643403,11.4262787 C11.0693403,11.3382787 11.0693403,11.2457787 11.0693403,11.1577787 L11.0693403,11.4262787 L11.0643403,11.4262787 Z" id="Fill-8" fill="#000000"></path>
                    <g id="Group-12" transform="translate(0.000000, 0.019021)">
                        <mask id="mask-4" fill="white">
                            <use xlink:href="#path-3"></use>
                        </mask>
                        <g id="Clip-11"></g>
                        <path d="M11.0643403,11.2073106 L11.0656138,11.2073106 L11.0656138,21.7313106 C11.0444736,21.7325872 11.0246069,21.7325872 11.0033393,21.7325872 C9.16579658,21.7325872 7.43382756,21.2814383 5.91198713,20.4825447 C4.30316619,19.6401191 2.92930723,18.4111404 1.91101132,16.9167574 C0.705000539,15.1470128 -1.27350664e-05,13.0082043 -1.27350664e-05,10.7025447 L-1.27350664e-05,0.10986383 C0.0211274751,0.108714894 0.0409941787,0.108714894 0.0621343888,0.108714894 C1.20357839,0.108714894 2.30516163,0.283097872 3.34077723,0.605948936 C3.97116301,0.80292766 4.57786157,1.05582128 5.15361392,1.35875745 C8.66849224,3.19960851 11.0656138,6.88871489 11.0656138,11.1387574 C11.0656138,11.1612255 11.0656138,11.1848426 11.0643403,11.2073106" id="Fill-10" fill="#97B126" mask="url(#mask-4)"></path>
                    </g>
                    <path d="M24.8042798,0.752080851 L24.8042798,4.05361277 C24.8042798,6.88905957 23.7375906,9.4740383 21.9832079,11.4282511 C21.2857083,12.2059532 20.477541,12.8839532 19.5848128,13.4385064 L19.5835393,13.4385064 C19.5723325,13.4460383 19.5623991,13.4535702 19.5511923,13.4596979 C17.9945851,14.418166 16.1806023,14.999017 14.2372311,15.0738255 C14.0930702,15.0812298 13.9476357,15.083783 13.8009278,15.083783 C13.7797875,15.083783 13.7597935,15.083783 13.7386533,15.0825064 L13.7386533,11.7809745 C13.7386533,11.5952298 13.74362,11.4107617 13.7536807,11.2288468 C13.9276417,7.67671915 15.7777921,4.56591064 18.5292032,2.67642128 C20.1852712,1.53859149 22.1671023,0.843102128 24.3057019,0.760761702 C24.4499903,0.753357447 24.5954247,0.750804255 24.7421327,0.750804255 C24.7632729,0.750804255 24.7831396,0.750804255 24.8042798,0.752080851" id="Fill-13" fill="#97B126"></path>
                    <path d="M11.0693021,11.4262787 L11.0643021,11.4262787 C11.0693021,11.3382787 11.0693021,11.2457787 11.0693021,11.1577787 L11.0693021,11.4262787 Z" id="Fill-15" fill="#000000"></path>
                    <path d="M38.4534947,10.3290383 L44.1733224,27.3055915 L49.9103425,10.2081447 C50.2088524,9.31005957 50.4328622,8.6856766 50.5822446,8.33435745 C50.7314995,7.98329362 50.9784325,7.66669787 51.3230434,7.38444255 C51.6676543,7.10257021 52.1384697,6.96137872 52.7358716,6.96137872 C53.172175,6.96137872 53.5770228,7.07091064 53.9504149,7.28946383 C54.3235524,7.5084 54.6164589,7.79895319 54.8290071,8.16163404 C55.0414281,8.52431489 55.1477659,8.88993191 55.1477659,9.25822979 C55.1477659,9.5117617 55.1133812,9.78495319 55.0444845,10.0786979 C54.9755878,10.3721872 54.8893714,10.6600596 54.78609,10.9421872 C54.6825539,11.2244426 54.5792725,11.5149957 54.4758638,11.8142298 L48.3598481,28.3590383 C48.1415691,28.9924851 47.9231627,29.594017 47.7051384,30.1638894 C47.4868593,30.7337617 47.2340683,31.2344426 46.9471472,31.6661872 C46.6598441,32.0980596 46.2777921,32.4520596 45.8013733,32.7283149 C45.3246998,33.0045702 44.7418158,33.1428255 44.0527213,33.1428255 C43.3636269,33.1428255 42.7806156,33.0073787 42.3040694,32.7371234 C41.8272685,32.4666128 41.4426695,32.1096766 41.149763,31.6661872 C40.8568564,31.2230809 40.6011363,30.7193362 40.383112,30.1550809 C40.1648329,29.5910809 39.9464265,28.9924851 39.7284022,28.3590383 L33.715668,11.9524851 C33.6122592,11.6532511 33.5060488,11.359634 33.3969093,11.071634 C33.2877697,10.784017 33.1959499,10.473166 33.1213224,10.1390809 C33.0464402,9.80525106 33.0092538,9.52325106 33.0092538,9.29282553 C33.0092538,8.70571915 33.2445979,8.17018723 33.715668,7.68661277 C34.1864834,7.20316596 34.7778998,6.96137872 35.4901721,6.96137872 C36.3629062,6.96137872 36.9805569,7.22908085 37.3422328,7.76448511 C37.7041634,8.2997617 38.0744991,9.15469787 38.4534947,10.3290383" id="Fill-17" fill="#585858"></path>
                    <path d="M62.9349788,16.5808085 L62.9349788,17.1506809 C63.761994,16.0570213 64.6665657,15.2539149 65.6484394,14.741617 C66.6305677,14.2294468 67.7588946,13.9729787 69.0338021,13.9729787 C70.2743249,13.9729787 71.3825304,14.2437447 72.3589279,14.784766 C73.3350707,15.3260426 74.0645353,16.091617 74.5469396,17.081617 C74.8570385,17.6574894 75.0577432,18.2793191 75.149945,18.9468511 C75.2417649,19.614766 75.2878658,20.4666383 75.2878658,21.5028511 L75.2878658,30.276 C75.2878658,31.2202979 75.0725158,31.9340426 74.6418159,32.417617 C74.2109886,32.9011915 73.6510277,33.1427234 72.9619333,33.1427234 C72.2611226,33.1427234 71.6926292,32.8951915 71.2564532,32.4002553 C70.8196404,31.9053191 70.6016161,31.1971915 70.6016161,30.276 L70.6016161,22.4181702 C70.6016161,20.8639149 70.3862661,19.6751489 69.9555662,18.8518723 C69.5248662,18.0288511 68.6661407,17.6170213 67.379899,17.6170213 C66.5412949,17.6170213 65.7777003,17.8674894 65.0886058,18.3682979 C64.3993841,18.869234 63.8939293,19.5571915 63.5724962,20.4320426 C63.3425009,21.1344255 63.2280127,22.4470213 63.2280127,24.3697021 L63.2280127,30.276 C63.2280127,31.2319149 63.0065498,31.9485957 62.564643,32.4261702 C62.1223542,32.9037447 61.5508044,33.1427234 60.8503758,33.1427234 C60.1726155,33.1427234 59.6155837,32.8951915 59.1792804,32.4002553 C58.7425949,31.9053191 58.5245706,31.1971915 58.5245706,30.276 L58.5245706,16.65 C58.5245706,15.7517872 58.7196718,15.0813191 59.1103836,14.6379574 C59.5005861,14.1948511 60.0348221,13.9729787 60.7125823,13.9729787 C61.1260899,13.9729787 61.4992274,14.0710213 61.8323767,14.2667234 C62.1653987,14.4625532 62.4324531,14.7561702 62.6335398,15.1474468 C62.8343718,15.5389787 62.9349788,16.0169362 62.9349788,16.5808085" id="Fill-19" fill="#585858"></path>
                    <path d="M95.3933518,11.3479532 L85.314693,11.3479532 L85.314693,17.8242511 L93.7394488,17.8242511 C94.520363,17.8242511 95.1031197,17.9999106 95.4879734,18.3509745 C95.8728271,18.7024213 96.0652539,19.1714426 96.0652539,19.7585489 C96.0652539,20.345783 95.8697707,20.8119957 95.4794409,21.1573149 C95.0888564,21.5027617 94.5089015,21.6756128 93.7394488,21.6756128 L85.314693,21.6756128 L85.314693,30.017017 C85.314693,31.0764638 85.0761652,31.8622085 84.5997463,32.3743787 C84.1230728,32.8864213 83.5112802,33.1427617 82.7650053,33.1427617 C82.0068868,33.1427617 81.3893635,32.8838681 80.9129446,32.3656979 C80.4362711,31.8476553 80.197998,31.0648468 80.197998,30.017017 L80.197998,10.5362936 C80.197998,9.79969787 80.3068828,9.19791064 80.5251619,8.73157021 C80.7433135,8.26522979 81.0851227,7.92578298 81.5503347,7.71259149 C82.0154193,7.49965532 82.6098922,7.39318723 83.3334987,7.39318723 L95.3933518,7.39318723 C96.2087781,7.39318723 96.8145852,7.57446383 97.2109005,7.93714468 C97.6072158,8.29982553 97.8052461,8.77471915 97.8052461,9.36195319 C97.8052461,9.9606766 97.6072158,10.4413149 97.2109005,10.8039957 C96.8145852,11.1666766 96.2087781,11.3479532 95.3933518,11.3479532" id="Fill-21" fill="#585858"></path>
                </g>
            </g>
        </g>
    </g>
</svg>