<?xml version="1.0" encoding="UTF-8"?>
<svg width="120px" height="131px" viewBox="0 0 120 131" version="1.1" xmlns="http://www.w3.org/2000/svg" xmlns:xlink="http://www.w3.org/1999/xlink">
    <!-- Generator: Sketch 50.2 (55047) - http://www.bohemiancoding.com/sketch -->
    <title>Icon</title>
    <desc>Created with Sketch.</desc>
    <defs></defs>
    <g id="Landing-page-5-jun" stroke="none" stroke-width="1" fill="none" fill-rule="evenodd">
        <g id="FOLD-3" transform="translate(-154.000000, -168.000000)" fill="#849C1B">
            <g id="Group-2" transform="translate(150.000000, 168.000000)">
                <g id="Icon" transform="translate(4.000000, 0.000000)">
                    <path d="M57.2727273,130.909091 L13.6363636,130.909091 C6.11727273,130.909091 0,124.791818 0,117.272727 L0,13.6363636 C0,12.1281818 1.22181818,10.9090909 2.72727273,10.9090909 C4.23272727,10.9090909 5.45454545,12.1281818 5.45454545,13.6363636 L5.45454545,117.272727 C5.45454545,121.783636 9.12545455,125.454545 13.6363636,125.454545 L57.2727273,125.454545 C58.7781818,125.454545 60,126.673636 60,128.181818 C60,129.69 58.7781818,130.909091 57.2727273,130.909091 L57.2727273,130.909091 Z" id="Shape"></path>
                    <path d="M106.363636,62.7245455 C104.858182,62.7245455 103.636364,61.5054545 103.636364,59.9972727 L103.636364,27.2727273 L13.6363636,27.2727273 C6.11727273,27.2727273 0,21.1554545 0,13.6363636 C0,6.11727273 6.11727273,0 13.6363636,0 L106.363636,0 C107.869091,0 109.090909,1.21909091 109.090909,2.72727273 C109.090909,4.23545455 107.869091,5.45454545 106.363636,5.45454545 L13.6363636,5.45454545 C9.12545455,5.45454545 5.45454545,9.12545455 5.45454545,13.6363636 C5.45454545,18.1472727 9.12545455,21.8181818 13.6363636,21.8181818 L109.090909,21.8181818 L109.090909,59.9972727 C109.090909,61.5054545 107.869091,62.7245455 106.363636,62.7245455 L106.363636,62.7245455 Z" id="Shape"></path>
                    <path d="M87.2727273,130.909091 C69.2263636,130.909091 54.5454545,116.228182 54.5454545,98.1818182 C54.5454545,80.1354545 69.2263636,65.4545455 87.2727273,65.4545455 C105.319091,65.4545455 120,80.1354545 120,98.1818182 C120,116.228182 105.319091,130.909091 87.2727273,130.909091 L87.2727273,130.909091 Z M87.2727273,70.9090909 C72.2345455,70.9090909 60,83.1436364 60,98.1818182 C60,113.22 72.2345455,125.454545 87.2727273,125.454545 C102.310909,125.454545 114.545455,113.22 114.545455,98.1818182 C114.545455,83.1436364 102.310909,70.9090909 87.2727273,70.9090909 L87.2727273,70.9090909 Z" id="Shape"></path>
                    <path d="M87.2727273,114.545455 C85.7672727,114.545455 84.5454545,113.326364 84.5454545,111.818182 L84.5454545,84.5454545 C84.5454545,83.0372727 85.7672727,81.8181818 87.2727273,81.8181818 C88.7781818,81.8181818 90,83.0372727 90,84.5454545 L90,111.818182 C90,113.326364 88.7781818,114.545455 87.2727273,114.545455 L87.2727273,114.545455 Z" id="Shape"></path>
                    <path d="M87.2727273,115.674545 L74.4354545,102.837273 C73.3690909,101.770909 73.3690909,100.047273 74.4354545,98.9809091 C75.5018182,97.9145455 77.2254545,97.9145455 78.2918182,98.9809091 L87.2727273,107.961818 L96.2536364,98.9809091 C97.32,97.9145455 99.0436364,97.9145455 100.11,98.9809091 C101.176364,100.047273 101.176364,101.770909 100.11,102.837273 L87.2727273,115.674545 L87.2727273,115.674545 Z" id="Shape"></path>
                    <rect id="Rectangle-path" x="13.6363636" y="10.9090909" width="90" height="5.45454545"></rect>
                </g>
            </g>
        </g>
    </g>
</svg>